<svg xmlns="http://www.w3.org/2000/svg" viewBox="0 0 1053.95 841.89"><defs><style>.a{fill:#082366;}</style></defs><title>GustavoSept_ldasdasogo</title><path class="a" d="M605.27,130.2C443.89,87,278,182.72,234.78,344.1s52.53,327.25,213.9,370.49,327.25-52.53,370.49-213.9S766.64,173.44,605.27,130.2Zm-163.49,448-19.42,72.48a2.26,2.26,0,0,1-3.14,1.47C309.88,601,249.56,477.37,281.89,356.72,313.73,237.9,424.83,161.5,543.06,169.14a2.26,2.26,0,0,1,2,2.85l-16.53,61.69a16.83,16.83,0,0,1-4.83,8l-13.4,12.39a26.49,26.49,0,0,1-9.45,5.63l-43.41,14.78a3.53,3.53,0,0,0-2.27,2.43l-7.92,29.55a33.64,33.64,0,0,0-16.6,62l-6.64,24.77a3.53,3.53,0,0,0,.9,3.4l59.37,59.85a33.64,33.64,0,0,0,5.8,41.6l-9.28,34.63a17.69,17.69,0,0,1-4.78,8.13l-28.57,27.66A21.15,21.15,0,0,0,441.77,578.18Zm83.28-11.34-22.92,19.8a20.2,20.2,0,0,0-6.31,10.06l-18.23,68a5,5,0,0,0,0,2.77,19.72,19.72,0,0,1,.12,11.41,19.87,19.87,0,1,1-27.39-23.59A5,5,0,0,0,453,652.1l16-59.79a14.94,14.94,0,0,1,4-6.87l32.62-31.58a3.53,3.53,0,0,0,1-1.62l12.18-45.46a33.64,33.64,0,0,0-8.48-66.69l-52-52.38a3.53,3.53,0,0,1-.9-3.4l3.45-12.87a33.63,33.63,0,0,0,14-52.53,3.54,3.54,0,0,0,.27-0.7L480,300.14a3.53,3.53,0,0,1,2.27-2.43l35.47-12.08a20.5,20.5,0,0,0,7.32-4.36l23.16-21.42a27.23,27.23,0,0,0,7.81-12.94l18.18-67.84a5,5,0,0,0,0-2.67,19.75,19.75,0,0,1,.06-11.28A19.88,19.88,0,0,1,612.52,176a19.8,19.8,0,0,1-9,11.93,5.22,5.22,0,0,0-2.42,3.11L583.67,256a23,23,0,0,1-7.09,11.38l-26.74,23.36a18.57,18.57,0,0,0-5.72,9.18l-10.27,38.34A33.64,33.64,0,0,0,527.21,402l65.58,62.5a6.18,6.18,0,0,1,1.71,6.07l-2.58,9.62a33.63,33.63,0,0,0-14.73,55l-4.29,16a3.53,3.53,0,0,1-2.57,2.52L532.58,563A18.1,18.1,0,0,0,525.05,566.84ZM452.83,325a15.58,15.58,0,1,1-19.09,11A15.58,15.58,0,0,1,452.83,325Zm145,202.37a15.58,15.58,0,1,1,19.09-11A15.58,15.58,0,0,1,597.84,527.38ZM508.54,675.5a2.26,2.26,0,0,1-2-2.85l16.39-61.16a13.87,13.87,0,0,1,4.33-6.9l12.35-10.67a15.91,15.91,0,0,1,6.62-3.41l48.49-11.88a3.53,3.53,0,0,0,2.57-2.52l8.13-30.33a33.64,33.64,0,0,0,16.25-60.66l5.75-21.44a10.6,10.6,0,0,0-2.93-10.42l-60.57-57.73a33.64,33.64,0,0,0-1-49.65l6.22-23.2a39.63,39.63,0,0,1,12.2-19.59L605,282.39a15.23,15.23,0,0,0,4.69-7.53L631.33,194a2.26,2.26,0,0,1,3.14-1.47C744,243.59,804.41,367.32,772.06,488.06,740,607.67,627.65,684.3,508.54,675.5Z"/><circle class="a" cx="417.37" cy="518.42" r="33.64" transform="translate(-191.41 787.39) rotate(-75)"/><circle class="a" cx="632.27" cy="329.12" r="33.64" transform="translate(150.73 854.67) rotate(-75)"/></svg>